<?xml version="1.0" standalone="no"?>
<!DOCTYPE svg PUBLIC "-//W3C//DTD SVG 20010904//EN"
 "http://www.w3.org/TR/2001/REC-SVG-20010904/DTD/svg10.dtd">
<svg version="1.0" xmlns="http://www.w3.org/2000/svg"
 width="101.000000pt" height="138.000000pt" viewBox="0 0 101.000000 138.000000"
 preserveAspectRatio="xMidYMid meet">

<g transform="translate(0.000000,138.000000) scale(0.100000,-0.100000)"
fill="#000000" stroke="none">
<path d="M331 981 c-6 -11 -11 -33 -11 -50 0 -31 0 -31 -55 -31 -48 0 -55 -2
-55 -20 0 -14 7 -20 23 -20 23 0 24 -2 30 -127 4 -71 7 -154 7 -185 0 -95 7
-98 204 -98 131 0 168 3 179 15 11 10 17 50 21 137 13 245 15 258 42 258 13 0
24 3 24 8 -1 21 -20 31 -65 34 l-50 3 -5 45 -5 45 -137 3 c-127 2 -138 1 -147
-17z m249 -51 l0 -31 -107 3 -108 3 -3 28 -3 27 110 0 111 0 0 -30z"/>
</g>
</svg>
